<mxfile host="app.diagrams.net" modified="2024-04-08T08:09:50.139Z" agent="Mozilla/5.0 (Windows NT 10.0; Win64; x64) AppleWebKit/537.36 (KHTML, like Gecko) Chrome/123.0.0.0 Safari/537.36 Edg/123.0.0.0" etag="Daw19Gx9RlmUaMf0D-Pv" version="24.2.2" type="github">
  <diagram name="Page-1" id="bRULm2HhSNIIncVrvaSl">
    <mxGraphModel dx="631" dy="748" grid="1" gridSize="10" guides="1" tooltips="1" connect="1" arrows="1" fold="1" page="1" pageScale="1" pageWidth="827" pageHeight="1169" math="0" shadow="0">
      <root>
        <mxCell id="0" />
        <mxCell id="1" parent="0" />
        <mxCell id="HyRW067U_DmT28mFm7Wc-1" value="AWS Cloud" style="sketch=0;outlineConnect=0;gradientColor=none;html=1;whiteSpace=wrap;fontSize=12;fontStyle=0;shape=mxgraph.aws4.group;grIcon=mxgraph.aws4.group_aws_cloud;strokeColor=#AAB7B8;fillColor=none;verticalAlign=top;align=left;spacingLeft=30;fontColor=#AAB7B8;dashed=0;" parent="1" vertex="1">
          <mxGeometry x="130" y="80" width="530" height="360" as="geometry" />
        </mxCell>
        <mxCell id="HyRW067U_DmT28mFm7Wc-2" value="Region" style="points=[[0,0],[0.25,0],[0.5,0],[0.75,0],[1,0],[1,0.25],[1,0.5],[1,0.75],[1,1],[0.75,1],[0.5,1],[0.25,1],[0,1],[0,0.75],[0,0.5],[0,0.25]];outlineConnect=0;gradientColor=none;html=1;whiteSpace=wrap;fontSize=12;fontStyle=0;container=1;pointerEvents=0;collapsible=0;recursiveResize=0;shape=mxgraph.aws4.group;grIcon=mxgraph.aws4.group_region;strokeColor=#00A4A6;fillColor=none;verticalAlign=top;align=left;spacingLeft=30;fontColor=#147EBA;dashed=1;" parent="1" vertex="1">
          <mxGeometry x="160" y="120" width="470" height="310" as="geometry" />
        </mxCell>
        <mxCell id="HyRW067U_DmT28mFm7Wc-3" value="VPC :&amp;nbsp;&lt;span style=&quot;color: rgb(36, 136, 20);&quot;&gt;192.168.1.0/24&lt;/span&gt;" style="shape=mxgraph.ibm.box;prType=vpc;fontStyle=0;verticalAlign=top;align=left;spacingLeft=32;spacingTop=4;fillColor=none;rounded=0;whiteSpace=wrap;html=1;strokeColor=#4376BB;strokeWidth=2;dashed=0;container=1;spacing=-4;collapsible=0;expand=0;recursiveResize=0;" parent="HyRW067U_DmT28mFm7Wc-2" vertex="1">
          <mxGeometry x="10" y="42" width="450" height="250" as="geometry" />
        </mxCell>
        <mxCell id="vwch8mvd7_ARNedPxH75-3" value="" style="sketch=0;outlineConnect=0;fontColor=#232F3E;gradientColor=none;fillColor=#8C4FFF;strokeColor=none;dashed=0;verticalLabelPosition=bottom;verticalAlign=top;align=center;html=1;fontSize=12;fontStyle=0;aspect=fixed;pointerEvents=1;shape=mxgraph.aws4.internet_gateway;" vertex="1" parent="HyRW067U_DmT28mFm7Wc-3">
          <mxGeometry x="225" y="74" width="42" height="42" as="geometry" />
        </mxCell>
        <mxCell id="vwch8mvd7_ARNedPxH75-1" value="Availability Zone A" style="fillColor=none;strokeColor=#147EBA;dashed=1;verticalAlign=top;fontStyle=0;fontColor=#147EBA;whiteSpace=wrap;html=1;" vertex="1" parent="HyRW067U_DmT28mFm7Wc-2">
          <mxGeometry x="71" y="20" width="160" height="280" as="geometry" />
        </mxCell>
        <mxCell id="vwch8mvd7_ARNedPxH75-2" value="Availability Zone B" style="fillColor=none;strokeColor=#147EBA;dashed=1;verticalAlign=top;fontStyle=0;fontColor=#147EBA;whiteSpace=wrap;html=1;" vertex="1" parent="HyRW067U_DmT28mFm7Wc-2">
          <mxGeometry x="283" y="20" width="160" height="280" as="geometry" />
        </mxCell>
        <mxCell id="vwch8mvd7_ARNedPxH75-4" value="Public subnet 2 :&lt;div&gt;192.168.1.128/16&lt;br&gt;&lt;div&gt;&lt;br&gt;&lt;/div&gt;&lt;/div&gt;" style="points=[[0,0],[0.25,0],[0.5,0],[0.75,0],[1,0],[1,0.25],[1,0.5],[1,0.75],[1,1],[0.75,1],[0.5,1],[0.25,1],[0,1],[0,0.75],[0,0.5],[0,0.25]];outlineConnect=0;gradientColor=none;html=1;whiteSpace=wrap;fontSize=12;fontStyle=0;container=1;pointerEvents=0;collapsible=0;recursiveResize=0;shape=mxgraph.aws4.group;grIcon=mxgraph.aws4.group_security_group;grStroke=0;strokeColor=#7AA116;fillColor=#F2F6E8;verticalAlign=top;align=left;spacingLeft=30;fontColor=#248814;dashed=0;" vertex="1" parent="HyRW067U_DmT28mFm7Wc-2">
          <mxGeometry x="300" y="70" width="128" height="100" as="geometry" />
        </mxCell>
        <mxCell id="vwch8mvd7_ARNedPxH75-5" value="Public subnet 1:&lt;div&gt;192.168.1.0/22&lt;/div&gt;" style="points=[[0,0],[0.25,0],[0.5,0],[0.75,0],[1,0],[1,0.25],[1,0.5],[1,0.75],[1,1],[0.75,1],[0.5,1],[0.25,1],[0,1],[0,0.75],[0,0.5],[0,0.25]];outlineConnect=0;gradientColor=none;html=1;whiteSpace=wrap;fontSize=12;fontStyle=0;container=1;pointerEvents=0;collapsible=0;recursiveResize=0;shape=mxgraph.aws4.group;grIcon=mxgraph.aws4.group_security_group;grStroke=0;strokeColor=#7AA116;fillColor=#F2F6E8;verticalAlign=top;align=left;spacingLeft=30;fontColor=#248814;dashed=0;" vertex="1" parent="HyRW067U_DmT28mFm7Wc-2">
          <mxGeometry x="86" y="70" width="130" height="100" as="geometry" />
        </mxCell>
        <mxCell id="vwch8mvd7_ARNedPxH75-6" value="Private subnet 1 :&lt;div&gt;192.168.1.64/22&lt;/div&gt;" style="points=[[0,0],[0.25,0],[0.5,0],[0.75,0],[1,0],[1,0.25],[1,0.5],[1,0.75],[1,1],[0.75,1],[0.5,1],[0.25,1],[0,1],[0,0.75],[0,0.5],[0,0.25]];outlineConnect=0;gradientColor=none;html=1;whiteSpace=wrap;fontSize=12;fontStyle=0;container=1;pointerEvents=0;collapsible=0;recursiveResize=0;shape=mxgraph.aws4.group;grIcon=mxgraph.aws4.group_security_group;grStroke=0;strokeColor=#00A4A6;fillColor=#E6F6F7;verticalAlign=top;align=left;spacingLeft=30;fontColor=#147EBA;dashed=0;" vertex="1" parent="HyRW067U_DmT28mFm7Wc-2">
          <mxGeometry x="86" y="176" width="130" height="104" as="geometry" />
        </mxCell>
        <mxCell id="vwch8mvd7_ARNedPxH75-7" value="Private subnet 2 :&lt;div&gt;192.168.1.192/22&lt;/div&gt;" style="points=[[0,0],[0.25,0],[0.5,0],[0.75,0],[1,0],[1,0.25],[1,0.5],[1,0.75],[1,1],[0.75,1],[0.5,1],[0.25,1],[0,1],[0,0.75],[0,0.5],[0,0.25]];outlineConnect=0;gradientColor=none;html=1;whiteSpace=wrap;fontSize=12;fontStyle=0;container=1;pointerEvents=0;collapsible=0;recursiveResize=0;shape=mxgraph.aws4.group;grIcon=mxgraph.aws4.group_security_group;grStroke=0;strokeColor=#00A4A6;fillColor=#E6F6F7;verticalAlign=top;align=left;spacingLeft=30;fontColor=#147EBA;dashed=0;" vertex="1" parent="HyRW067U_DmT28mFm7Wc-2">
          <mxGeometry x="300" y="176" width="130" height="104" as="geometry" />
        </mxCell>
      </root>
    </mxGraphModel>
  </diagram>
</mxfile>
